<?xml version="1.0" standalone="no"?>
<!DOCTYPE svg PUBLIC "-//W3C//DTD SVG 20010904//EN"
 "http://www.w3.org/TR/2001/REC-SVG-20010904/DTD/svg10.dtd">
<svg version="1.0" xmlns="http://www.w3.org/2000/svg"
 width="301.000000pt" height="301.000000pt" viewBox="0 0 301.000000 301.000000"
 preserveAspectRatio="xMidYMid meet">
<metadata>
Created by potrace 1.14, written by Peter Selinger 2001-2017
</metadata>
<g transform="translate(0.000000,301.000000) scale(0.100000,-0.100000)"
fill="#000000" stroke="none">
<path d="M0 2242 c0 -423 3 -1100 7 -1505 l6 -737 1499 0 1498 0 0 1505 0
1505 -1505 0 -1505 0 0 -768z m710 492 c43 -37 60 -75 60 -136 0 -97 -48 -155
-138 -166 l-51 -7 95 -164 c52 -91 94 -171 94 -177 0 -39 -75 -59 -101 -28 -8
9 -60 96 -115 193 -76 132 -107 177 -123 179 -21 3 -21 1 -21 -177 0 -198 -4
-211 -60 -211 -59 0 -60 9 -60 382 l0 338 194 0 194 0 32 -26z m374 4 c14 -19
16 -65 16 -303 0 -205 3 -284 12 -293 17 -17 202 -16 216 1 7 8 12 115 14 305
3 318 2 312 60 312 57 0 58 -5 58 -318 0 -316 -3 -332 -63 -376 -26 -19 -43
-21 -177 -21 -134 0 -151 2 -177 21 -60 44 -63 60 -63 376 0 247 2 289 16 302
23 24 70 20 88 -6z m1021 -10 c66 -61 54 -143 -19 -136 -25 2 -34 10 -49 41
l-17 37 -115 0 c-74 0 -115 -4 -115 -11 0 -5 75 -108 167 -227 92 -119 173
-228 180 -242 22 -43 16 -79 -21 -116 l-34 -34 -153 0 c-180 0 -212 10 -243
74 -33 67 -1 109 70 92 16 -4 26 -17 32 -39 l8 -32 117 -3 c90 -2 117 0 117
10 0 7 -79 115 -174 241 -96 125 -177 240 -181 255 -8 37 7 74 41 101 25 19
38 21 190 21 l164 0 35 -32z m-1467 -860 c16 -16 15 -55 0 -65 -7 -4 -62 -10
-122 -13 l-109 -5 -59 -110 c-33 -60 -62 -123 -65 -140 -4 -23 9 -57 51 -142
31 -62 63 -119 72 -128 12 -12 39 -15 119 -15 95 0 105 -2 115 -20 15 -29 3
-59 -26 -66 -13 -3 -75 -5 -137 -3 -148 5 -156 11 -243 178 -59 113 -64 129
-64 185 1 56 6 71 68 186 90 167 95 170 261 170 86 0 131 -4 139 -12z m680 0
c15 -15 15 -51 0 -66 -7 -7 -43 -12 -90 -12 l-78 0 0 -270 0 -270 78 0 c47 0
83 -5 90 -12 15 -15 15 -51 0 -66 -15 -15 -420 -17 -449 -2 -21 12 -25 50 -7
68 7 7 44 12 95 12 l83 0 0 270 0 270 -76 0 c-41 0 -84 5 -95 10 -21 12 -25
50 -7 68 17 17 439 17 456 0z m700 0 c16 -16 15 -55 0 -65 -7 -4 -62 -10 -122
-13 l-109 -5 -59 -110 c-33 -60 -62 -123 -65 -140 -4 -23 9 -57 51 -142 31
-62 63 -119 72 -128 12 -12 39 -15 119 -15 95 0 105 -2 115 -20 15 -29 3 -59
-26 -66 -13 -3 -75 -5 -137 -3 -148 5 -156 11 -243 178 -59 113 -64 129 -64
185 1 56 6 71 68 186 90 167 95 170 261 170 86 0 131 -4 139 -12z m500 0 c8
-10 192 -654 192 -672 0 -15 -35 -36 -59 -36 -37 0 -48 15 -70 92 l-18 63 -90
3 -91 3 -18 -67 c-20 -76 -34 -94 -73 -94 -33 0 -51 16 -51 46 0 32 177 644
191 660 14 17 73 18 87 2z m-1920 -1080 c14 -14 15 -37 2 -58 -7 -11 -37 -16
-122 -20 l-113 -5 -58 -109 c-33 -61 -61 -124 -64 -141 -4 -24 8 -58 55 -152
34 -66 68 -123 77 -127 9 -3 59 -6 110 -6 72 0 97 -4 109 -16 21 -21 20 -37
-3 -58 -17 -16 -36 -18 -144 -15 -159 5 -165 9 -253 178 -59 113 -64 129 -64
185 1 56 6 71 68 186 90 167 95 170 261 170 86 0 131 -4 139 -12z m524 -4 c24
-13 43 -42 96 -152 90 -186 90 -199 0 -383 -59 -121 -70 -138 -104 -154 -49
-23 -118 -14 -154 20 -15 14 -53 80 -86 147 -81 169 -81 189 6 368 72 148 94
170 168 170 24 0 57 -7 74 -16z m689 -6 c26 -18 50 -54 99 -151 88 -176 88
-193 -3 -374 -44 -87 -76 -139 -94 -150 -21 -14 -53 -19 -154 -21 -123 -4
-127 -3 -143 19 -9 13 -16 27 -16 31 0 17 34 38 61 38 l29 0 0 270 0 270 -28
0 c-33 0 -52 16 -52 45 0 39 18 45 146 45 109 0 124 -2 155 -22z m853 0 c13
-19 14 -25 2 -43 -13 -19 -25 -20 -185 -23 l-171 -2 0 -110 0 -110 78 0 c83 0
102 -9 102 -47 0 -32 -28 -43 -109 -43 l-71 0 0 -115 0 -115 168 0 c92 0 172
-4 178 -8 19 -13 23 -39 8 -61 -15 -20 -22 -21 -245 -21 l-229 0 0 360 0 360
229 0 c226 0 230 0 245 -22z"/>
<path d="M410 2595 l0 -75 109 0 c102 0 111 2 125 22 9 12 16 36 16 53 0 17
-7 41 -16 53 -14 20 -23 22 -125 22 l-109 0 0 -75z"/>
<path d="M2465 1591 c-3 -7 -15 -40 -25 -75 -10 -35 -21 -73 -25 -85 -6 -20
-3 -21 54 -21 37 0 61 4 61 11 0 18 -43 163 -51 172 -3 5 -10 4 -14 -2z"/>
<path d="M982 587 c-33 -71 -52 -125 -52 -148 0 -40 102 -259 120 -259 19 0
120 219 120 260 0 43 -102 260 -122 260 -7 0 -37 -51 -66 -113z"/>
<path d="M1710 440 c0 -327 2 -331 92 -150 74 150 74 162 0 305 -90 174 -92
170 -92 -155z"/>
</g>
</svg>
